HIERARCHY
ROOT Hips
{
	OFFSET 0.000000 0.000000 0.000000 
	CHANNELS 6 Xposition Yposition Zposition Xrotation Yrotation Zrotation
	JOINT Spine
	{
		OFFSET 0.000000 1.722820 2.584230 
		CHANNELS 3 Xrotation Yrotation Zrotation
		JOINT Spine1
		{
			OFFSET 0.000000 0.598330 3.393290 
			CHANNELS 3 Xrotation Yrotation Zrotation
			JOINT Spine2
			{
				OFFSET 0.000000 0.300310 3.432520 
				CHANNELS 3 Xrotation Yrotation Zrotation
				JOINT Spine3
				{
					OFFSET 0.000000 0.000000 3.445640 
					CHANNELS 3 Xrotation Yrotation Zrotation
					JOINT Neck
					{
						OFFSET 0.000000 -1.292100 9.044790 
						CHANNELS 3 Xrotation Yrotation Zrotation
						JOINT Head
						{
							OFFSET 0.000000 -0.822700 4.665770 
							CHANNELS 3 Xrotation Yrotation Zrotation
							End Site
							{
								OFFSET 0.000000 0.000010 5.577620 
							}
						}
					}
					JOINT RightShoulder
					{
						OFFSET -1.175120 -1.958530 6.345670 
						CHANNELS 3 Xrotation Yrotation Zrotation
						JOINT RightArm
						{
							OFFSET -5.836450 0.000000 0.000000 
							CHANNELS 3 Xrotation Yrotation Zrotation
							JOINT RightForeArm
							{
								OFFSET -10.886420 0.000000 0.000000 
								CHANNELS 3 Xrotation Yrotation Zrotation
								JOINT RightHand
								{
									OFFSET -10.194950 0.000000 0.000000 
									CHANNELS 3 Xrotation Yrotation Zrotation
									JOINT RightHandEnd
									{
										OFFSET -2.735920 0.000000 0.000000 
										CHANNELS 3 Xrotation Yrotation Zrotation
										End Site
										{
											OFFSET -2.735920 0.000000 0.000000 
										}
									}
									JOINT RightHandThumb1
									{
										OFFSET -1.094370 -1.823950 -0.729580 
										CHANNELS 3 Yrotation Xrotation Zrotation
										End Site
										{
											OFFSET -2.642700 -0.708110 0.000000 
										}
									}
								}
							}
						}
					}
					JOINT LeftShoulder
					{
						OFFSET 1.175120 -1.958530 6.345670 
						CHANNELS 3 Xrotation Yrotation Zrotation
						JOINT LeftArm
						{
							OFFSET 5.836450 0.000000 0.000000 
							CHANNELS 3 Xrotation Yrotation Zrotation
							JOINT LeftForeArm
							{
								OFFSET 10.886420 0.000000 0.000000 
								CHANNELS 3 Xrotation Yrotation Zrotation
								JOINT LeftHand
								{
									OFFSET 10.194950 0.000000 0.000000 
									CHANNELS 3 Xrotation Yrotation Zrotation
									JOINT LeftHandEnd
									{
										OFFSET 2.735920 0.000000 0.000000 
										CHANNELS 3 Xrotation Yrotation Zrotation
										End Site
										{
											OFFSET 2.735920 0.000000 0.000000 
										}
									}
									JOINT LeftHandThumb1
									{
										OFFSET 1.094370 -1.823950 -0.729580 
										CHANNELS 3 Yrotation Xrotation Zrotation
										End Site
										{
											OFFSET 2.642700 -0.708110 0.000000 
										}
									}
								}
							}
						}
					}
				}
			}
		}
	}
	JOINT RightUpLeg
	{
		OFFSET -3.486200 0.000000 -1.018440 
		CHANNELS 3 Xrotation Yrotation Zrotation
		JOINT RightLeg
		{
			OFFSET 0.000010 0.000000 -16.688210 
			CHANNELS 3 Xrotation Yrotation Zrotation
			JOINT RightFoot
			{
				OFFSET 0.000010 0.000000 -16.775360 
				CHANNELS 3 Xrotation Yrotation Zrotation
				JOINT RightToeBase
				{
					OFFSET 0.000000 -4.945160 -1.799890 
					CHANNELS 3 Xrotation Yrotation Zrotation
					End Site
					{
						OFFSET 0.000000 -2.820300 -0.000000 
					}
				}
			}
		}
	}
	JOINT LeftUpLeg
	{
		OFFSET 3.486200 0.000000 -1.018440 
		CHANNELS 3 Xrotation Yrotation Zrotation
		JOINT LeftLeg
		{
			OFFSET 0.000010 0.000000 -16.688210 
			CHANNELS 3 Xrotation Yrotation Zrotation
			JOINT LeftFoot
			{
				OFFSET 0.000010 0.000000 -16.775360 
				CHANNELS 3 Xrotation Yrotation Zrotation
				JOINT LeftToeBase
				{
					OFFSET 0.000000 -4.945160 -1.799890 
					CHANNELS 3 Xrotation Yrotation Zrotation
					End Site
					{
						OFFSET 0.000000 -2.820300 -0.000000 
					}
				}
			}
		}
	}
}
MOTION
Frames: 9
Frame Time: 0.008333
12.333200 31.489799 85.680801 -86.322502 8.026400 24.494801 4.150600 -2.267400 0.910800 3.826400 -2.495300 0.114700 0.468600 -6.211600 11.961000 -1.021500 0.627800 2.116100 7.941800 1.551600 -2.865500 -9.341100 9.395800 -32.913799 -16.981501 12.380100 8.204600 -73.021004 -23.530399 -13.326700 -0.000000 0.000100 86.460403 -55.298401 -18.371599 -0.172800 0.000000 -0.000000 -0.000000 0.000000 0.000000 0.000000 -0.367900 5.934000 9.238600 42.804699 57.110001 -21.828100 -0.000100 -0.000100 -112.188904 -34.381802 15.301400 -0.354000 0.000000 -0.000000 -0.000000 -0.000000 -0.000000 0.000000 16.623400 18.839001 -13.090600 41.182400 0.000000 0.000000 11.659700 -12.996000 -6.313800 0.357000 0.000000 0.000000 -58.116699 -3.488500 -5.904000 74.017303 0.000000 0.000000 -9.734000 4.664000 -15.458400 -2.447900 0.000000 -0.000000 
12.364800 31.552601 85.686699 -86.185898 8.064800 24.094400 4.178300 -2.312200 0.905100 3.822800 -2.542400 0.111700 0.388800 -6.178100 12.003200 -1.038200 0.685000 2.116500 7.938700 1.565400 -2.874600 -9.333700 9.305500 -32.907101 -16.914700 12.255000 8.380900 -72.694199 -23.566999 -12.961200 -0.000000 0.000100 86.015099 -55.334900 -18.555500 -0.576700 -0.000000 0.000000 -0.000000 -0.000000 -0.000000 -0.000000 -0.342700 6.032100 9.188100 42.598499 57.116699 -21.651400 -0.000100 -0.000100 -112.199799 -34.491100 15.360500 -0.238200 0.000000 0.000000 -0.000000 -0.000000 0.000000 0.000000 16.635599 18.991199 -13.309200 40.593601 0.000000 0.000000 11.819700 -12.814300 -6.227500 0.420200 0.000000 0.000000 -58.001999 -3.611700 -5.836500 73.768997 0.000000 0.000000 -9.641400 4.529900 -15.217400 -2.634800 0.000000 -0.000000 
12.396200 31.618299 85.688202 -86.052101 8.097600 23.672501 4.209500 -2.356400 0.898600 3.828500 -2.585700 0.109800 0.302600 -6.146200 12.050800 -1.062300 0.736200 2.120200 7.926900 1.565300 -2.880100 -9.320100 9.265900 -32.870998 -16.790600 12.088700 8.567200 -72.584602 -23.488001 -12.734700 -0.000000 0.000100 86.217697 -55.311798 -19.207899 -0.980900 0.000000 0.000000 0.000000 -0.000000 -0.000000 -0.000000 -0.320200 6.152300 9.098400 42.358898 57.135201 -21.413099 -0.000100 -0.000100 -112.195000 -34.579300 15.464700 -0.171000 -0.000000 0.000000 -0.000000 -0.000000 0.000000 -0.000000 16.649300 19.164499 -13.574700 39.985600 0.000000 0.000000 11.984800 -12.621300 -6.136700 0.481200 0.000000 0.000000 -57.870998 -3.734300 -5.772400 73.497704 0.000000 0.000000 -9.543500 4.407800 -14.955200 -2.811700 0.000000 -0.000000 
12.427300 31.686501 85.685501 -85.918701 8.124000 23.225401 4.228800 -2.388100 0.889900 3.834000 -2.616900 0.109000 0.235800 -6.131800 12.091100 -1.086800 0.766100 2.124500 7.886000 1.563100 -2.860000 -9.282800 9.264300 -32.781700 -16.630199 11.912300 8.782500 -72.631302 -23.338600 -12.642100 -0.000000 0.000100 86.941200 -55.360901 -20.132200 -1.393000 0.000000 0.000000 -0.000000 0.000000 0.000000 -0.000000 -0.315200 6.290800 9.000300 42.114498 57.166199 -21.148800 -0.000100 -0.000100 -112.170998 -34.651199 15.613700 -0.125500 0.000000 0.000000 -0.000000 0.000000 0.000000 0.000000 16.655399 19.355301 -13.865100 39.363998 0.000000 0.000000 12.156000 -12.423600 -6.060100 0.533600 0.000000 0.000000 -57.725601 -3.859000 -5.708000 73.203697 0.000000 0.000000 -9.440800 4.299000 -14.672500 -2.977700 0.000000 -0.000000 
12.457600 31.757099 85.678398 -85.782799 8.146200 22.750401 4.228500 -2.404200 0.878400 3.835200 -2.635700 0.108800 0.198800 -6.135200 12.118200 -1.107500 0.774900 2.126500 7.818900 1.574600 -2.809500 -9.223000 9.252900 -32.642601 -16.455999 11.751500 9.018900 -72.635803 -23.224899 -12.559500 -0.000000 0.000100 87.721497 -55.401501 -21.049801 -1.665900 0.000000 0.000000 0.000000 -0.000000 0.000000 0.000000 -0.338100 6.428400 8.905300 41.906399 57.199501 -20.897800 -0.000100 -0.000100 -112.129799 -34.713299 15.766400 -0.090600 0.000000 -0.000000 -0.000000 -0.000000 -0.000000 0.000000 16.643801 19.558599 -14.162800 38.734600 0.000000 0.000000 12.334300 -12.225600 -6.012700 0.571400 0.000000 0.000000 -57.570400 -3.990300 -5.642100 72.888199 0.000000 0.000000 -9.333700 4.205000 -14.371400 -3.131800 0.000000 -0.000000 
12.486700 31.829901 85.667503 -85.644302 8.167500 22.246000 4.219400 -2.414800 0.864300 3.840500 -2.652000 0.108400 0.166300 -6.132300 12.136800 -1.128600 0.780100 2.126400 7.738700 1.574900 -2.751900 -9.164100 9.234700 -32.459000 -16.267900 11.602400 9.243500 -72.463501 -23.214199 -12.417300 -0.000000 0.000100 88.272400 -54.381699 -21.809000 -1.439600 0.000000 0.000000 -0.000000 0.000000 -0.000000 0.000000 -0.382800 6.532800 8.816200 41.752300 57.269901 -20.674000 -0.000100 -0.000100 -112.071098 -34.778198 15.944700 -0.048400 0.000000 0.000000 0.000000 0.000000 -0.000000 0.000000 16.608400 19.770300 -14.461800 38.102299 0.000000 0.000000 12.519900 -12.032300 -5.994100 0.595000 0.000000 0.000000 -57.407600 -4.133600 -5.575200 72.552902 0.000000 0.000000 -9.223800 4.127100 -14.054400 -3.272800 0.000000 -0.000000 
12.514300 31.904699 85.653099 -85.504700 8.194400 21.712400 4.208900 -2.432200 0.846100 3.854300 -2.672800 0.107100 0.120200 -6.104200 12.148000 -1.152200 0.793300 2.123300 7.648400 1.545100 -2.700400 -9.119400 9.208700 -32.230499 -16.062700 11.455300 9.434800 -72.077202 -23.333700 -12.204500 -0.000000 0.000100 88.632301 -54.348000 -21.445900 -2.197800 0.000000 0.000000 -0.000000 -0.000000 0.000000 -0.000000 -0.437900 6.597200 8.739700 41.649200 57.366001 -20.487200 -0.000100 -0.000100 -111.998299 -34.879700 16.140600 0.015400 -0.000000 -0.000000 -0.000000 0.000000 -0.000000 -0.000000 16.545401 19.983101 -14.760400 37.470501 0.000000 0.000000 12.713300 -11.848900 -5.998600 0.606700 0.000000 0.000000 -57.239899 -4.294800 -5.512100 72.200500 0.000000 0.000000 -9.113300 4.066700 -13.724000 -3.399700 0.000000 -0.000000 
12.539900 31.980301 85.634499 -85.351799 8.220800 21.140100 4.183600 -2.439700 0.827700 3.864200 -2.695900 0.104300 0.076300 -6.056100 12.142700 -1.173200 0.805600 2.112700 7.531300 1.497000 -2.636500 -9.083700 9.179600 -31.966200 -15.848300 11.320100 9.602400 -71.565201 -23.579399 -12.036000 -0.000000 0.000100 88.866096 -54.508099 -21.015301 -2.830800 0.000000 -0.000000 -0.000000 -0.000000 0.000000 -0.000000 -0.497300 6.635200 8.684000 41.624699 57.450199 -20.376801 -0.000100 -0.000100 -111.919701 -35.022999 16.227100 0.061200 0.000000 -0.000000 0.000000 -0.000000 -0.000000 0.000000 16.463301 20.204000 -15.073600 36.827702 0.000000 0.000000 12.819500 -11.658300 -6.038200 0.716900 0.000000 0.000000 -57.078499 -4.475700 -5.439800 71.834000 0.000000 0.000000 -9.002700 4.024800 -13.380300 -3.511100 0.000000 -0.000000 
12.558600 32.057400 85.611298 -85.178703 8.262100 20.485001 4.124000 -2.422100 0.852800 3.853800 -2.725200 0.100700 0.064900 -6.005100 12.107600 -1.184900 0.806000 2.090000 7.377400 1.448200 -2.540500 -9.061500 9.146100 -31.694700 -15.642300 11.209100 9.764300 -70.884499 -23.979799 -11.913500 -0.000000 0.000100 88.851501 -54.778500 -20.751900 -2.986000 -0.000000 -0.000000 -0.000000 -0.000000 0.000000 -0.000000 -0.562100 6.680500 8.659600 41.631199 57.498699 -20.309099 -0.000100 -0.000100 -111.844299 -35.213501 16.179300 0.088000 0.000000 0.000000 -0.000000 -0.000000 -0.000000 0.000000 16.308800 20.422001 -15.327900 36.203400 0.000000 0.000000 12.817300 -11.463700 -6.135400 0.932600 0.000000 0.000000 -56.934898 -4.734400 -5.341100 71.454201 0.000000 0.000000 -8.893300 4.005700 -13.038000 -3.605700 0.000000 -0.000000 
